<svg xmlns="http://www.w3.org/2000/svg" width="1500" height="430" viewBox="0 0 1500 430" fill="none">
  <defs>
    <linearGradient id="bg" x1="0" y1="0" x2="1500" y2="430" gradientUnits="userSpaceOnUse"><stop stop-color="#060815"/><stop offset="0.42" stop-color="#10243a"/><stop offset="1" stop-color="#062f3f"/></linearGradient>
    <linearGradient id="field" x1="520" y1="350" x2="1370" y2="100" gradientUnits="userSpaceOnUse"><stop stop-color="#22d3ee"/><stop offset="0.46" stop-color="#facc15"/><stop offset="1" stop-color="#ff5c8a"/></linearGradient>
    <linearGradient id="area" x1="540" y1="330" x2="1370" y2="120" gradientUnits="userSpaceOnUse"><stop stop-color="#22d3ee" stop-opacity="0.08"/><stop offset="1" stop-color="#ff5c8a" stop-opacity="0.24"/></linearGradient>
    <filter id="glow" x="-10%" y="-35%" width="120%" height="170%"><feGaussianBlur stdDeviation="10" result="b"/><feMerge><feMergeNode in="b"/><feMergeNode in="SourceGraphic"/></feMerge></filter>
  </defs>
  <rect width="1500" height="430" rx="18" fill="url(#bg)"/>
  <rect x="38" y="38" width="1424" height="354" rx="18" fill="#050816" fill-opacity="0.42" stroke="#243b53"/>
  <text x="86" y="96" fill="#f8fafc" font-family="Inter, Segoe UI, Arial, sans-serif" font-size="43" font-weight="700">lewen214</text>
  <text x="86" y="132" fill="#22d3ee" font-family="Inter, Segoe UI, Arial, sans-serif" font-size="18" font-weight="700">AR Waveguide Optics · Computational Holography · Light Field Explorer</text>
  <g font-family="Inter, Segoe UI, Arial, sans-serif" font-size="24" font-weight="700">
    <text x="94" y="210" fill="#f8fafc">78 Contributions in 2026</text>
    <text x="94" y="264" fill="#f8fafc">6 Public Repos</text>
    <text x="94" y="318" fill="#f8fafc">Joined GitHub in 2026</text>
  </g>
  <g fill="none" stroke-width="4"><circle cx="74" cy="202" r="15" stroke="#22d3ee"/><rect x="60" y="247" width="28" height="28" rx="4" stroke="#facc15"/><circle cx="74" cy="310" r="15" stroke="#ff5c8a"/><path d="M74 300v12l8 6" stroke="#ff5c8a" stroke-linecap="round" stroke-linejoin="round"/></g>
  <text x="1110" y="96" fill="#f8fafc" font-family="Inter, Segoe UI, Arial, sans-serif" font-size="20" font-weight="700">photon trail in the last 28 days</text>
  <g stroke="#334155" stroke-width="1">
    <line x1="560" y1="338" x2="1388" y2="338"/><line x1="560" y1="290" x2="1388" y2="290" stroke-dasharray="5 6"/><line x1="560" y1="242" x2="1388" y2="242" stroke-dasharray="5 6"/><line x1="560" y1="194" x2="1388" y2="194" stroke-dasharray="5 6"/><line x1="560" y1="146" x2="1388" y2="146" stroke-dasharray="5 6"/><line x1="560" y1="98" x2="1388" y2="98" stroke-dasharray="5 6"/>
  </g>
  <path d="M560.0 278.0 L590.7 278.0 L621.3 278.0 L652.0 278.0 L682.7 278.0 L713.3 278.0 L744.0 278.0 L774.7 338.0 L805.3 338.0 L836.0 218.0 L866.7 278.0 L897.3 278.0 L928.0 278.0 L958.7 278.0 L989.3 278.0 L1020.0 278.0 L1050.7 278.0 L1081.3 278.0 L1112.0 278.0 L1142.7 278.0 L1173.3 278.0 L1204.0 98.0 L1234.7 278.0 L1265.3 278.0 L1296.0 278.0 L1326.7 278.0 L1357.3 278.0 L1388.0 338.0 L1388 338 L560 338 Z" fill="url(#area)"/>
  <path d="M560.0 278.0 L590.7 278.0 L621.3 278.0 L652.0 278.0 L682.7 278.0 L713.3 278.0 L744.0 278.0 L774.7 338.0 L805.3 338.0 L836.0 218.0 L866.7 278.0 L897.3 278.0 L928.0 278.0 L958.7 278.0 L989.3 278.0 L1020.0 278.0 L1050.7 278.0 L1081.3 278.0 L1112.0 278.0 L1142.7 278.0 L1173.3 278.0 L1204.0 98.0 L1234.7 278.0 L1265.3 278.0 L1296.0 278.0 L1326.7 278.0 L1357.3 278.0 L1388.0 338.0" stroke="url(#field)" stroke-width="7" stroke-linecap="round" stroke-linejoin="round" filter="url(#glow)"/>
  <g fill="#facc15"><circle cx="560.0" cy="278.0" r="4.8"/><circle cx="590.7" cy="278.0" r="4.8"/><circle cx="621.3" cy="278.0" r="4.8"/><circle cx="652.0" cy="278.0" r="4.8"/><circle cx="682.7" cy="278.0" r="4.8"/><circle cx="713.3" cy="278.0" r="4.8"/><circle cx="744.0" cy="278.0" r="4.8"/><circle cx="774.7" cy="338.0" r="4.8"/><circle cx="805.3" cy="338.0" r="4.8"/><circle cx="836.0" cy="218.0" r="4.8"/><circle cx="866.7" cy="278.0" r="4.8"/><circle cx="897.3" cy="278.0" r="4.8"/><circle cx="928.0" cy="278.0" r="4.8"/><circle cx="958.7" cy="278.0" r="4.8"/><circle cx="989.3" cy="278.0" r="4.8"/><circle cx="1020.0" cy="278.0" r="4.8"/><circle cx="1050.7" cy="278.0" r="4.8"/><circle cx="1081.3" cy="278.0" r="4.8"/><circle cx="1112.0" cy="278.0" r="4.8"/><circle cx="1142.7" cy="278.0" r="4.8"/><circle cx="1173.3" cy="278.0" r="4.8"/><circle cx="1204.0" cy="98.0" r="4.8"/><circle cx="1234.7" cy="278.0" r="4.8"/><circle cx="1265.3" cy="278.0" r="4.8"/><circle cx="1296.0" cy="278.0" r="4.8"/><circle cx="1326.7" cy="278.0" r="4.8"/><circle cx="1357.3" cy="278.0" r="4.8"/><circle cx="1388.0" cy="338.0" r="4.8"/></g>
  <text x="548" y="368" fill="#f8fafc" font-family="Inter, Segoe UI, Arial, sans-serif" font-size="16">last 28 days</text>
  <text x="1404" y="343" fill="#f8fafc" font-family="Inter, Segoe UI, Arial, sans-serif" font-size="15">0</text>
  <text x="1404" y="103" fill="#f8fafc" font-family="Inter, Segoe UI, Arial, sans-serif" font-size="15">4</text>
</svg>