<svg xmlns="http://www.w3.org/2000/svg" width="900" height="270" viewBox="0 0 900 270" fill="none">
  <defs><linearGradient id="bg" x1="0" y1="0" x2="900" y2="270" gradientUnits="userSpaceOnUse"><stop stop-color="#060815"/><stop offset="0.55" stop-color="#10243a"/><stop offset="1" stop-color="#073642"/></linearGradient></defs>
  <rect width="900" height="270" rx="16" fill="url(#bg)"/>
  <text x="58" y="54" fill="#22d3ee" font-family="Inter, Segoe UI, Arial, sans-serif" font-size="28" font-weight="700">Optical Stack by Domain</text>
  <g font-family="Inter, Segoe UI, Arial, sans-serif" font-size="18" font-weight="700">
    <rect x="62" y="90" width="18" height="18" fill="#22d3ee"/><text x="96" y="106" fill="#f8fafc">Waveguide Optics</text>
    <rect x="62" y="128" width="18" height="18" fill="#facc15"/><text x="96" y="144" fill="#f8fafc">PVG / LC Materials</text>
    <rect x="62" y="166" width="18" height="18" fill="#ff5c8a"/><text x="96" y="182" fill="#f8fafc">RCWA / Diffraction</text>
    <rect x="62" y="204" width="18" height="18" fill="#60a5fa"/><text x="96" y="220" fill="#f8fafc">Python Simulation</text>
  </g>
  <circle cx="590" cy="146" r="82" stroke="#172033" stroke-width="44"/>
  <path d="M590 64 A82 82 0 0 1 672 146" stroke="#22d3ee" stroke-width="44"/>
  <path d="M672 146 A82 82 0 0 1 590 228" stroke="#facc15" stroke-width="44"/>
  <path d="M590 228 A82 82 0 0 1 508 146" stroke="#ff5c8a" stroke-width="44"/>
  <path d="M508 146 A82 82 0 0 1 590 64" stroke="#60a5fa" stroke-width="48"/>
  <circle cx="590" cy="146" r="44" fill="#060815"/>
  <text x="590" y="139" text-anchor="middle" fill="#f8fafc" font-family="Inter, Segoe UI, Arial, sans-serif" font-size="18" font-weight="700">AR</text>
  <text x="590" y="164" text-anchor="middle" fill="#94a3b8" font-family="Inter, Segoe UI, Arial, sans-serif" font-size="13">6 REPOS</text>
</svg>