<svg xmlns="http://www.w3.org/2000/svg" width="1080" height="240" viewBox="0 0 1080 240" fill="none">
  <defs>
    <linearGradient id="bg2" x1="0" y1="0" x2="1080" y2="240" gradientUnits="userSpaceOnUse">
      <stop stop-color="#050816"/>
      <stop offset="0.5" stop-color="#0f172a"/>
      <stop offset="1" stop-color="#111827"/>
    </linearGradient>
    <linearGradient id="track" x1="130" y1="164" x2="860" y2="70" gradientUnits="userSpaceOnUse">
      <stop stop-color="#22d3ee"/>
      <stop offset="0.48" stop-color="#facc15"/>
      <stop offset="1" stop-color="#fb7185"/>
    </linearGradient>
  </defs>

  <rect width="1080" height="240" rx="18" fill="url(#bg2)"/>
  <text x="42" y="54" fill="#e2e8f0" font-family="Inter, Segoe UI, Arial, sans-serif" font-size="22" font-weight="700">Research Core</text>
  <text x="42" y="78" fill="#94a3b8" font-family="Inter, Segoe UI, Arial, sans-serif" font-size="12">AR/VR display optics, numerical simulation, and material modeling</text>

  <rect x="42" y="110" width="430" height="82" rx="16" fill="#0b1224" stroke="#1d4ed8"/>
  <rect x="496" y="110" width="542" height="82" rx="16" fill="#0b1224" stroke="#22d3ee"/>

  <g font-family="Inter, Segoe UI, Arial, sans-serif">
    <text x="68" y="138" fill="#facc15" font-size="15" font-weight="700">01</text>
    <text x="102" y="138" fill="#e2e8f0" font-size="16" font-weight="700">Waveguide Design</text>
    <text x="68" y="164" fill="#94a3b8" font-size="12">Coupling, propagation, out-coupling, eyebox.</text>

    <text x="522" y="138" fill="#22d3ee" font-size="15" font-weight="700">02</text>
    <text x="556" y="138" fill="#e2e8f0" font-size="16" font-weight="700">Optical Simulation Stack</text>
    <text x="522" y="164" fill="#94a3b8" font-size="12">Python, COMSOL, RCWA, FEM, ray tracing, visualization.</text>
  </g>

  <path d="M564 172 C626 150, 674 118, 734 122 C798 126, 824 82, 886 86 C942 90, 968 136, 1032 114" stroke="url(#track)" stroke-width="6" stroke-linecap="round"/>
  <circle cx="564" cy="172" r="6" fill="#22d3ee"/>
  <circle cx="734" cy="122" r="6" fill="#facc15"/>
  <circle cx="886" cy="86" r="6" fill="#fb7185"/>
  <circle cx="1032" cy="114" r="6" fill="#22d3ee"/>

  <text x="42" y="210" fill="#94a3b8" font-family="Inter, Segoe UI, Arial, sans-serif" font-size="13">Built for future near-eye display systems and optical research tooling.</text>
</svg>
