<svg xmlns="http://www.w3.org/2000/svg" width="900" height="280" viewBox="0 0 900 280" fill="none">
  <defs>
    <linearGradient id="bg2" x1="0" y1="0" x2="900" y2="280" gradientUnits="userSpaceOnUse">
      <stop stop-color="#020617"/>
      <stop offset="0.5" stop-color="#082f49"/>
      <stop offset="1" stop-color="#111827"/>
    </linearGradient>
    <linearGradient id="line" x1="120" y1="60" x2="760" y2="220" gradientUnits="userSpaceOnUse">
      <stop stop-color="#22d3ee"/>
      <stop offset="0.5" stop-color="#facc15"/>
      <stop offset="1" stop-color="#fb7185"/>
    </linearGradient>
  </defs>

  <rect width="900" height="280" rx="22" fill="url(#bg2)"/>
  <text x="58" y="58" fill="#e2e8f0" font-family="Inter, Segoe UI, Arial, sans-serif" font-size="30" font-weight="700">Research Core</text>
  <text x="58" y="92" fill="#38bdf8" font-family="Inter, Segoe UI, Arial, sans-serif" font-size="18" font-weight="600">AR/VR display optics, numerical simulation, and material modeling</text>

  <rect x="58" y="122" width="330" height="102" rx="18" fill="#0b1224" stroke="#1d4ed8"/>
  <rect x="412" y="122" width="430" height="102" rx="18" fill="#0b1224" stroke="#22d3ee"/>

  <g font-family="Inter, Segoe UI, Arial, sans-serif" font-size="18" font-weight="700">
    <text x="88" y="154" fill="#facc15">01</text>
    <text x="126" y="154" fill="#e2e8f0">Waveguide Design</text>
    <text x="88" y="186" fill="#94a3b8" font-size="15" font-weight="500">Coupling, propagation, out-coupling, eyebox.</text>

    <text x="442" y="154" fill="#22d3ee">02</text>
    <text x="480" y="154" fill="#e2e8f0">Optical Simulation Stack</text>
    <text x="442" y="186" fill="#94a3b8" font-size="15" font-weight="500">Python, COMSOL, RCWA, FEM, ray tracing, visualization.</text>
  </g>

  <path d="M450 214 C520 180, 560 180, 620 124 C670 78, 720 70, 790 92" stroke="url(#line)" stroke-width="7" stroke-linecap="round"/>
  <circle cx="450" cy="214" r="7" fill="#facc15"/>
  <circle cx="620" cy="124" r="7" fill="#22d3ee"/>
  <circle cx="790" cy="92" r="7" fill="#fb7185"/>

  <text x="58" y="246" fill="#94a3b8" font-family="Inter, Segoe UI, Arial, sans-serif" font-size="16">Built for future near-eye display systems and optical research tooling.</text>
</svg>
