<svg xmlns="http://www.w3.org/2000/svg" width="900" height="270" viewBox="0 0 900 270" fill="none">
  <defs>
    <linearGradient id="bg" x1="0" y1="0" x2="900" y2="270" gradientUnits="userSpaceOnUse">
      <stop stop-color="#060815"/>
      <stop offset="0.55" stop-color="#111827"/>
      <stop offset="1" stop-color="#10243a"/>
    </linearGradient>
    <linearGradient id="mark" x1="560" y1="65" x2="744" y2="205" gradientUnits="userSpaceOnUse">
      <stop stop-color="#22d3ee"/>
      <stop offset="0.55" stop-color="#facc15"/>
      <stop offset="1" stop-color="#ff5c8a"/>
    </linearGradient>
  </defs>
  <rect width="900" height="270" rx="16" fill="url(#bg)"/>
  <text x="58" y="54" fill="#22d3ee" font-family="Inter, Segoe UI, Arial, sans-serif" font-size="28" font-weight="700">Research Console</text>
  <g font-family="Inter, Segoe UI, Arial, sans-serif" font-size="18">
    <text x="62" y="102" fill="#facc15">01</text><text x="108" y="102" fill="#f8fafc" font-weight="700">PVG waveguide simulation</text>
    <text x="62" y="142" fill="#22d3ee">02</text><text x="108" y="142" fill="#f8fafc" font-weight="700">RCWA and FEM modeling</text>
    <text x="62" y="182" fill="#ff5c8a">03</text><text x="108" y="182" fill="#f8fafc" font-weight="700">Simulation-to-fabrication workflow</text>
    <text x="62" y="222" fill="#60a5fa">04</text><text x="108" y="222" fill="#f8fafc" font-weight="700">Near-eye AR/VR display tooling</text>
  </g>
  <circle cx="656" cy="142" r="78" fill="#0b1224" stroke="url(#mark)" stroke-width="8"/>
  <path d="M604 158 C638 116, 674 108, 710 82" stroke="url(#mark)" stroke-width="8" stroke-linecap="round"/>
  <path d="M602 178 C648 166, 694 174, 740 132" stroke="#22d3ee" stroke-width="5" stroke-linecap="round"/>
  <path d="M618 112 C646 134, 682 148, 728 160" stroke="#facc15" stroke-width="5" stroke-linecap="round"/>
  <text x="656" y="234" text-anchor="middle" fill="#94a3b8" font-family="Inter, Segoe UI, Arial, sans-serif" font-size="14">wavefront control</text>
</svg>
